<svg width="34" height="24" viewBox="0 0 34 24" fill="none" xmlns="http://www.w3.org/2000/svg">
<rect x="0.5" y="0.5" width="33" height="22.8" rx="2" fill="white" stroke="#D9D9D9"/>
<path fill-rule="evenodd" clip-rule="evenodd" d="M16.0574 15.6269V12.6311H17.572C18.1927 12.6311 18.7165 12.4188 19.1436 12.0001L19.2461 11.8939C20.0261 11.027 19.9749 9.67657 19.1436 8.87455C18.7279 8.44995 18.1585 8.21996 17.572 8.23176H15.1406V15.6269H16.0574ZM16.0575 11.7229V9.13993H17.5951C17.9254 9.13993 18.2387 9.26967 18.4721 9.50556C18.9676 10.0009 18.979 10.8265 18.5006 11.3396C18.2671 11.5932 17.9368 11.7347 17.5951 11.7229H16.0575ZM23.5223 10.9622C23.1295 10.5907 22.5942 10.4019 21.9166 10.4019C21.0454 10.4019 20.3906 10.7322 19.9579 11.3868L20.7664 11.9116C21.0625 11.4634 21.4668 11.2393 21.9793 11.2393C22.3038 11.2393 22.617 11.3632 22.8618 11.5873C23.101 11.7996 23.2376 12.1062 23.2376 12.4306V12.6488C22.8846 12.4483 22.4405 12.3421 21.8938 12.3421C21.2561 12.3421 20.7436 12.4955 20.3621 12.808C19.9806 13.1206 19.787 13.5334 19.787 14.0582C19.7756 14.5359 19.9749 14.99 20.328 15.2966C20.6867 15.6269 21.1422 15.792 21.6775 15.792C22.3095 15.792 22.8106 15.503 23.1921 14.9251H23.232V15.6269H24.1088V12.5072C24.1088 11.8527 23.9152 11.3337 23.5223 10.9622ZM21.0342 14.6951C20.8463 14.5535 20.7324 14.3235 20.7324 14.0759C20.7324 13.7987 20.8577 13.5687 21.1025 13.3859C21.3531 13.2031 21.6663 13.1087 22.0365 13.1087C22.5491 13.1028 22.9477 13.2208 23.2325 13.4566C23.2325 13.8577 23.0787 14.2056 22.7769 14.5005C22.5035 14.7835 22.1333 14.9427 21.7461 14.9427C21.4898 14.9486 21.2392 14.8602 21.0342 14.6951ZM26.079 17.8501L29.1424 10.5671H28.146L26.7281 14.1998H26.711L25.2591 10.5671H24.2626L26.2726 15.3025L25.1338 17.8501H26.079Z" fill="#3C4043"/>
<path d="M12.8926 11.9823C12.8926 11.6934 12.8698 11.4044 12.8243 11.1213H8.95801V12.7549H11.173C11.0819 13.2797 10.7858 13.7515 10.3531 14.0464V15.1078H11.6741C12.4485 14.3707 12.8926 13.2797 12.8926 11.9823Z" fill="#4285F4"/>
<path d="M8.95817 16.134C10.0628 16.134 10.9967 15.7565 11.6743 15.1078L10.3532 14.0463C9.98311 14.3058 9.5105 14.4533 8.95817 14.4533C7.88768 14.4533 6.98232 13.7043 6.65776 12.7018H5.29688V13.7987C5.99155 15.2317 7.40938 16.134 8.95817 16.134Z" fill="#34A853"/>
<path d="M6.65797 12.7018C6.48712 12.1769 6.48712 11.6049 6.65797 11.0741V9.98315H5.29687C4.71029 11.1803 4.71029 12.5956 5.29687 13.7927L6.65797 12.7018Z" fill="#FBBC04"/>
<path d="M8.95817 9.32268C9.54466 9.31089 10.1084 9.54088 10.5297 9.95958L11.7027 8.74476C10.9568 8.0253 9.97741 7.63019 8.95817 7.64198C7.40938 7.64198 5.99155 8.55015 5.29688 9.98317L6.65776 11.0801C6.98232 10.0716 7.88768 9.32268 8.95817 9.32268Z" fill="#EA4335"/>
</svg>
