<svg width="34" height="24" viewBox="0 0 34 24" fill="none" xmlns="http://www.w3.org/2000/svg">
<rect x="0.5" y="0.5" width="33" height="22.8" rx="2" fill="#FEB4C7" stroke="#D9D9D9"/>
<path fill-rule="evenodd" clip-rule="evenodd" d="M5.26922 15.2515H3.88574V8.92505H5.26922V15.2515ZM8.72321 8.92505H7.36974C7.36974 10.0893 6.8597 11.1579 5.97046 11.857L5.43423 12.2784L7.51192 15.2518H9.22018L7.30843 12.5158C8.21463 11.5688 8.72321 10.2947 8.72321 8.92505ZM10.9299 15.2497H9.62333V8.92614H10.9299V15.2497ZM14.8773 10.8756V11.1555C14.5247 10.9031 14.0992 10.7547 13.6403 10.7547C12.4257 10.7547 11.441 11.7881 11.441 13.0629C11.441 14.3376 12.4257 15.371 13.6403 15.371C14.0992 15.371 14.5247 15.2227 14.8773 14.9703V15.2499H16.1252V10.8756H14.8773ZM14.8735 13.063C14.8735 13.6846 14.3672 14.1885 13.7427 14.1885C13.1183 14.1885 12.612 13.6846 12.612 13.063C12.612 12.4414 13.1183 11.9377 13.7427 11.9377C14.3672 11.9377 14.8735 12.4414 14.8735 13.063ZM28.0424 11.1555V10.8756H29.2902V15.2499H28.0424V14.9703C27.6898 15.2227 27.2643 15.371 26.8053 15.371C25.5907 15.371 24.606 14.3376 24.606 13.0629C24.606 11.7881 25.5907 10.7547 26.8053 10.7547C27.2643 10.7547 27.6898 10.9031 28.0424 11.1555ZM26.9078 14.1885C27.5323 14.1885 28.0385 13.6846 28.0385 13.063C28.0385 12.4414 27.5323 11.9377 26.9078 11.9377C26.2833 11.9377 25.7771 12.4414 25.7771 13.063C25.7771 13.6846 26.2833 14.1885 26.9078 14.1885ZM22.3885 10.7581C21.8901 10.7581 21.4183 10.9205 21.1029 11.3686V10.876H19.8604V15.25H21.1181V12.9513C21.1181 12.2861 21.5432 11.9604 22.0549 11.9604C22.6033 11.9604 22.9186 12.3042 22.9186 12.9422V15.25H24.165V12.4683C24.165 11.4504 23.3938 10.7581 22.3885 10.7581ZM18.0556 10.8756V11.4453C18.3058 11.1036 18.7719 10.8758 19.2786 10.8758V12.1487L19.2717 12.1484L19.2638 12.1481C18.7701 12.1481 18.0585 12.5185 18.0585 13.2075V15.2498H16.778V10.8756H18.0556ZM29.8318 14.52C29.8318 14.066 30.1824 13.6981 30.6149 13.6981C31.0474 13.6981 31.398 14.066 31.398 14.52C31.398 14.9738 31.0474 15.3418 30.6149 15.3418C30.1824 15.3418 29.8318 14.9738 29.8318 14.52Z" fill="#17120F"/>
</svg>
