<svg width="34" height="24" viewBox="0 0 34 24" fill="none" xmlns="http://www.w3.org/2000/svg">
<rect x="0.5" y="0.5" width="33" height="22.8" rx="2" fill="white" stroke="#D9D9D9"/>
<path fill-rule="evenodd" clip-rule="evenodd" d="M17.3168 17.3999C16.0194 18.4951 14.3366 19.1563 12.4977 19.1563C8.3946 19.1563 5.06836 15.8645 5.06836 11.8038C5.06836 7.74312 8.3946 4.45129 12.4977 4.45129C14.3366 4.45129 16.0195 5.11248 17.3168 6.20773C18.6141 5.11249 20.297 4.45132 22.1358 4.45132C26.239 4.45132 29.5652 7.74315 29.5652 11.8038C29.5652 15.8645 26.239 19.1563 22.1358 19.1563C20.2969 19.1563 18.6141 18.4952 17.3168 17.3999Z" fill="#ED0006"/>
<path fill-rule="evenodd" clip-rule="evenodd" d="M17.3169 17.3999C18.9143 16.0513 19.9272 14.0446 19.9272 11.8038C19.9272 9.56298 18.9143 7.55629 17.3169 6.2077C18.6142 5.11247 20.2971 4.45129 22.1359 4.45129C26.2391 4.45129 29.5653 7.74312 29.5653 11.8038C29.5653 15.8645 26.2391 19.1563 22.1359 19.1563C20.2971 19.1563 18.6142 18.4951 17.3169 17.3999Z" fill="#F9A000"/>
<path fill-rule="evenodd" clip-rule="evenodd" d="M17.3168 17.3999C18.9142 16.0514 19.9271 14.0447 19.9271 11.8039C19.9271 9.56309 18.9142 7.55641 17.3168 6.20782C15.7194 7.55641 14.7065 9.56308 14.7065 11.8039C14.7065 14.0447 15.7194 16.0514 17.3168 17.3999Z" fill="#FF5E00"/>
</svg>
