<svg width="34" height="24" viewBox="0 0 34 24" fill="none" xmlns="http://www.w3.org/2000/svg">
<rect x="0.5" y="0.5" width="33" height="22.8" rx="2" fill="white" stroke="#D9D9D9"/>
<path fill-rule="evenodd" clip-rule="evenodd" d="M9.75634 15.114H8.22327C8.11836 15.114 8.02913 15.1907 8.01277 15.2949L7.39272 19.2507C7.3804 19.3288 7.44047 19.3991 7.51916 19.3991H8.25106C8.35597 19.3991 8.44519 19.3224 8.46155 19.218L8.62879 18.1511C8.64492 18.0466 8.73436 17.97 8.83906 17.97H9.32437C10.3343 17.97 10.9171 17.4782 11.0693 16.5038C11.1379 16.0774 11.0723 15.7425 10.8738 15.5078C10.656 15.2503 10.2694 15.114 9.75634 15.114ZM9.93321 16.5588C9.84939 17.1123 9.42906 17.1123 9.02265 17.1123H8.79131L8.9536 16.0785C8.96324 16.0161 9.01704 15.97 9.07981 15.97H9.18584C9.46269 15.97 9.72387 15.97 9.85883 16.1288C9.93923 16.2236 9.96392 16.3643 9.93321 16.5588ZM14.3391 16.541H13.6049C13.5424 16.541 13.4883 16.5871 13.4787 16.6496L13.4462 16.8562L13.3948 16.7813C13.2359 16.5492 12.8815 16.4716 12.5278 16.4716C11.7165 16.4716 11.0236 17.0899 10.8886 17.9572C10.8185 18.3898 10.9182 18.8035 11.1621 19.092C11.3859 19.3573 11.706 19.4678 12.0868 19.4678C12.7405 19.4678 13.103 19.0448 13.103 19.0448L13.0702 19.2502C13.0579 19.3287 13.118 19.399 13.1962 19.399H13.8575C13.9627 19.399 14.0514 19.3223 14.068 19.2179L14.4648 16.6895C14.4773 16.6117 14.4175 16.541 14.3391 16.541ZM13.3157 17.9788C13.2448 18.4009 12.9119 18.6842 12.4874 18.6842C12.2743 18.6842 12.1038 18.6154 11.9945 18.485C11.886 18.3556 11.8447 18.1712 11.8792 17.966C11.9454 17.5475 12.2839 17.255 12.702 17.255C12.9104 17.255 13.0799 17.3246 13.1915 17.4562C13.3033 17.5891 13.3477 17.7744 13.3157 17.9788ZM17.5113 16.5409H18.249C18.3524 16.5409 18.4126 16.6575 18.3539 16.7428L15.9002 20.3067C15.8605 20.3645 15.795 20.3988 15.7251 20.3988H14.9883C14.8845 20.3988 14.8239 20.2813 14.884 20.1958L15.648 19.1106L14.8354 16.711C14.8073 16.6276 14.8685 16.5409 14.9567 16.5409H15.6816C15.7758 16.5409 15.8589 16.6031 15.8861 16.6938L16.3173 18.1431L17.3349 16.635C17.3747 16.5761 17.4409 16.5409 17.5113 16.5409Z" fill="#253B80"/>
<path fill-rule="evenodd" clip-rule="evenodd" d="M25.51 19.2506L26.1391 15.2225C26.1488 15.16 26.2026 15.1139 26.2652 15.1137H26.9735C27.0517 15.1137 27.1118 15.1843 27.0994 15.2624L26.479 19.218C26.4628 19.3224 26.3736 19.3991 26.2685 19.3991H25.6359C25.5577 19.3991 25.4976 19.3287 25.51 19.2506ZM20.6915 15.1139H19.1581C19.0534 15.1139 18.9642 15.1906 18.9478 15.2948L18.3278 19.2506C18.3154 19.3287 18.3755 19.3991 18.4538 19.3991H19.2406C19.3137 19.3991 19.3763 19.3454 19.3877 19.2724L19.5636 18.151C19.5798 18.0465 19.6692 17.9699 19.7739 17.9699H20.259C21.2691 17.9699 21.8518 17.4782 22.0042 16.5037C22.0729 16.0774 22.0068 15.7424 21.8085 15.5078C21.5908 15.2502 21.2045 15.1139 20.6915 15.1139ZM20.8683 16.5587C20.7847 17.1123 20.3644 17.1123 19.9577 17.1123H19.7266L19.8891 16.0784C19.8988 16.016 19.9521 15.97 20.0151 15.97H20.1211C20.3978 15.97 20.6592 15.97 20.7941 16.1288C20.8746 16.2235 20.899 16.3643 20.8683 16.5587ZM25.2738 16.541H24.5401C24.4771 16.541 24.4235 16.587 24.4141 16.6495L24.3816 16.8561L24.3301 16.7813C24.1711 16.5491 23.817 16.4716 23.4632 16.4716C22.6519 16.4716 21.9592 17.0898 21.8243 17.9572C21.7544 18.3898 21.8536 18.8034 22.0975 19.092C22.3217 19.3572 22.6414 19.4678 23.0222 19.4678C23.6759 19.4678 24.0383 19.0448 24.0383 19.0448L24.0057 19.2501C23.9933 19.3286 24.0534 19.399 24.1321 19.399H24.7931C24.8978 19.399 24.987 19.3222 25.0034 19.2179L25.4004 16.6894C25.4126 16.6117 25.3525 16.541 25.2738 16.541ZM24.2505 17.9788C24.1801 18.4008 23.8467 18.6841 23.4221 18.6841C23.2094 18.6841 23.0386 18.6153 22.9292 18.485C22.8207 18.3555 22.7799 18.1712 22.814 17.966C22.8805 17.5475 23.2186 17.255 23.6367 17.255C23.8452 17.255 24.0146 17.3246 24.1263 17.4561C24.2386 17.589 24.283 17.7744 24.2505 17.9788Z" fill="#179BD7"/>
<path d="M15.4299 13.6988L15.6184 12.4942L15.1986 12.4844H13.1938L14.587 3.59523C14.5913 3.56839 14.6054 3.54337 14.6259 3.5256C14.6465 3.50784 14.6728 3.49805 14.7002 3.49805H18.0805C19.2028 3.49805 19.9772 3.73303 20.3815 4.19683C20.5711 4.41441 20.6918 4.64178 20.7502 4.89199C20.8114 5.15454 20.8126 5.46821 20.7527 5.85079L20.7483 5.87871V6.12384L20.938 6.23191C21.0976 6.31712 21.2244 6.41467 21.3217 6.52636C21.484 6.71239 21.5888 6.94883 21.6331 7.22913C21.6789 7.51743 21.6637 7.86047 21.5888 8.24885C21.5023 8.69561 21.3625 9.08471 21.1737 9.4031C20.9999 9.69647 20.7786 9.93974 20.516 10.1284C20.2651 10.3075 19.9671 10.4435 19.6302 10.5306C19.3036 10.6161 18.9314 10.6593 18.5231 10.6593H18.26C18.0719 10.6593 17.8891 10.7274 17.7458 10.8497C17.602 10.9744 17.5067 11.1448 17.4776 11.3312L17.4578 11.4397L17.1248 13.5628L17.1096 13.6408C17.1057 13.6655 17.0989 13.6778 17.0888 13.6862C17.0798 13.6937 17.0668 13.6988 17.0541 13.6988H15.4299Z" fill="#253B80"/>
<path d="M21.1173 5.9071C21.1073 5.97201 21.0958 6.03837 21.0828 6.10654C20.6369 8.40961 19.1119 9.20522 17.164 9.20522H16.1723C15.9341 9.20522 15.7333 9.37927 15.6962 9.61571L15.1884 12.8562L15.0446 13.7747C15.0205 13.9299 15.1394 14.0699 15.2951 14.0699H17.0541C17.2624 14.0699 17.4393 13.9176 17.4721 13.7109L17.4894 13.6209L17.8207 11.5061L17.8419 11.3901C17.8743 11.1827 18.0516 11.0304 18.2599 11.0304H18.523C20.2272 11.0304 21.5613 10.3341 21.9513 8.31931C22.1142 7.47765 22.0298 6.77488 21.5988 6.28061C21.4684 6.13157 21.3066 6.00791 21.1173 5.9071Z" fill="#179BD7"/>
<path d="M20.6511 5.72015C20.5831 5.7002 20.5127 5.68207 20.4406 5.66575C20.3682 5.6498 20.294 5.63566 20.2176 5.62333C19.9502 5.57981 19.6572 5.55914 19.3433 5.55914H16.6938C16.6286 5.55914 16.5666 5.57401 16.5111 5.60085C16.3889 5.65995 16.2982 5.77636 16.2762 5.91887L15.7125 9.51108L15.6963 9.61587C15.7334 9.37944 15.9342 9.20537 16.1723 9.20537H17.1641C19.112 9.20537 20.6371 8.40941 21.0829 6.10671C21.0962 6.03854 21.1074 5.97218 21.1174 5.90727C21.0047 5.84707 20.8825 5.79558 20.7509 5.75169C20.7185 5.74082 20.685 5.73031 20.6511 5.72015Z" fill="#222D65"/>
<path d="M16.2761 5.91877C16.2981 5.77626 16.389 5.65986 16.5111 5.60111C16.567 5.57427 16.6286 5.5594 16.6938 5.5594H19.3434C19.6573 5.5594 19.9502 5.58007 20.2176 5.62359C20.294 5.63592 20.3683 5.65006 20.4407 5.66601C20.5128 5.68234 20.583 5.70047 20.6512 5.72041C20.685 5.73057 20.7185 5.74108 20.7513 5.7516C20.8828 5.79547 21.005 5.84733 21.1178 5.90717C21.2505 5.05607 21.1168 4.4766 20.6595 3.95187C20.1553 3.3742 19.2453 3.12689 18.081 3.12689H14.7006C14.4627 3.12689 14.2599 3.30095 14.2231 3.53775L12.8151 12.5183C12.7873 12.6959 12.9235 12.8563 13.1016 12.8563H15.1886L15.7125 9.51098L16.2761 5.91877Z" fill="#253B80"/>
</svg>
