<svg width="34" height="24" viewBox="0 0 34 24" fill="none" xmlns="http://www.w3.org/2000/svg">
<rect x="0.5" y="0.5" width="33" height="22.8" rx="2" fill="white" stroke="#D9D9D9"/>
<path fill-rule="evenodd" clip-rule="evenodd" d="M10.3848 16.1227H8.32508L6.78053 10.1074C6.70721 9.8307 6.55155 9.58608 6.32258 9.47079C5.75116 9.18105 5.12149 8.95046 4.43457 8.83417V8.60258H7.75265C8.21059 8.60258 8.55405 8.95046 8.61129 9.35449L9.4127 13.6935L11.4714 8.60258H13.4739L10.3848 16.1227ZM14.6188 16.1227H12.6735L14.2753 8.60258H16.2206L14.6188 16.1227ZM18.7373 10.6859C18.7945 10.2809 19.138 10.0493 19.5387 10.0493C20.1683 9.99112 20.8543 10.1074 21.4267 10.3961L21.7701 8.77702C21.1977 8.54543 20.568 8.42914 19.9966 8.42914C18.1086 8.42914 16.7348 9.47079 16.7348 10.9165C16.7348 12.0163 17.7079 12.5937 18.3948 12.9416C19.138 13.2885 19.4242 13.5201 19.3669 13.867C19.3669 14.3873 18.7945 14.6189 18.2231 14.6189C17.5362 14.6189 16.8493 14.4455 16.2206 14.1557L15.8771 15.7759C16.5641 16.0646 17.3072 16.1809 17.9941 16.1809C20.1111 16.238 21.4267 15.1974 21.4267 13.6354C21.4267 11.6684 18.7373 11.5531 18.7373 10.6859V10.6859ZM28.2346 16.1227L26.69 8.60258H25.031C24.6875 8.60258 24.3441 8.83417 24.2296 9.18105L21.3694 16.1227H23.3719L23.7716 15.0239H26.2321L26.4611 16.1227H28.2346ZM25.3172 10.6277L25.8886 13.462H24.2868L25.3172 10.6277Z" fill="#172B85"/>
</svg>
